<svg width="48" height="48" viewBox="0 0 48 48" fill="none" xmlns="http://www.w3.org/2000/svg">
  <!-- Gradient definitions -->
  <defs>
    <linearGradient id="logoGradient" x1="0%" y1="0%" x2="100%" y2="100%">
      <stop offset="0%" style="stop-color:#8B5CF6;stop-opacity:1" />
      <stop offset="100%" style="stop-color:#3B82F6;stop-opacity:1" />
    </linearGradient>
    <linearGradient id="innerGradient" x1="0%" y1="0%" x2="100%" y2="100%">
      <stop offset="0%" style="stop-color:#A78BFA;stop-opacity:1" />
      <stop offset="100%" style="stop-color:#60A5FA;stop-opacity:1" />
    </linearGradient>
  </defs>
  
  <!-- Main circle background -->
  <circle cx="24" cy="24" r="22" fill="url(#logoGradient)"/>
  
  <!-- Chat bubble shape -->
  <g transform="translate(24, 24)">
    <!-- Main bubble -->
    <path d="M-10 -8 Q-10 -12 -6 -12 L6 -12 Q10 -12 10 -8 L10 2 Q10 6 6 6 L2 6 L-2 10 L-2 6 L-6 6 Q-10 6 -10 2 Z" 
          fill="white" opacity="0.9"/>
    
    <!-- Dots inside bubble -->
    <circle cx="-5" cy="-3" r="1.5" fill="url(#innerGradient)"/>
    <circle cx="0" cy="-3" r="1.5" fill="url(#innerGradient)"/>
    <circle cx="5" cy="-3" r="1.5" fill="url(#innerGradient)"/>
  </g>
  
  <!-- Secondary smaller bubble -->
  <g transform="translate(32, 30)">
    <path d="M-4 -3 Q-4 -5 -2 -5 L2 -5 Q4 -5 4 -3 L4 1 Q4 3 2 3 L1 3 L-1 5 L-1 3 L-2 3 Q-4 3 -4 1 Z" 
          fill="white" opacity="0.5"/>
  </g>
  
  <!-- Decorative ring -->
  <circle cx="24" cy="24" r="21" fill="none" stroke="white" stroke-width="0.5" opacity="0.3"/>
</svg>